<svg xmlns="http://www.w3.org/2000/svg" width="772" height="641.924" viewBox="0 0 772 641.924"><g id="Group_253" data-name="Group 253" transform="translate(-86.917 -1221.075)"><g id="Group_221" data-name="Group 221" transform="translate(86.917 1241)"><path id="Path_469" data-name="Path 469" d="M190.05,108.66c43.18-34.213,102.14-40.476,152.5-21.455,66.906,25.273,116.149,89.278,181.13,120.015a203.111,203.111,0,0,0,145.9,10.758c23.284-7.147,45.932-18.606,70.1-19.376,21.406-.68,42.55,7.266,60.747,19.657,53.548,36.46,80.425,114.227,62.381,180.484-9.663,35.475-30.406,66.285-54.571,92.124-49.923,53.386-116.15,88.085-185.369,97.122-38.632,5.043-77.825,2.3-116.32-3.891-83.882-13.5-166.526-44.087-235.6-98.032C188.259,421.49,106.309,308.839,137.27,191.416,145.936,158.547,164.739,128.716,190.05,108.66Z" transform="translate(-130.579 -76.611)" fill="#ffeec5"></path><path id="Path_470" data-name="Path 470" d="M609.008,170.738c-2.721-6.95-4.977-15.778-.4-21.433a12.705,12.705,0,0,1,6.682-4.063c12.1-3.27,23.975,6.043,32.418,16.107a143.27,143.27,0,0,1,19.851,31.19c2.706,5.77,5.084,11.87,5.652,18.329s-.886,13.383-4.991,18.055C640.6,260.375,616.551,190,609.008,170.738Z" transform="translate(98.67 -43.836)" fill="#ffeec5"></path></g><g id="Group_157" data-name="Group 157" transform="translate(1.06 1129.075)"><path id="Path_119" data-name="Path 119" d="M3414.47,457.637v83.714H3498.2V457.637Zm6.321,77.392V463.958h71.071v71.071Z" transform="translate(-2969.697 -301.944)" fill="#3e7483"></path><rect id="Rectangle_29" data-name="Rectangle 29" width="244.971" height="244.971" transform="translate(235.774 92)" fill="#375a64"></rect><g id="Group_81" data-name="Group 81" transform="translate(250.117 94.508)"><g id="Group_80" data-name="Group 80"><g id="Group_79" data-name="Group 79"><g id="Group_53" data-name="Group 53" transform="translate(32.788 87.152)"><g id="Group_52" data-name="Group 52"><path id="Path_120" data-name="Path 120" d="M3149.112,518.578H3285.4c.571-5.207-20.3-115.956-44.825-151.562-2.782-4.04-26.615-6.98-35.365,3.069C3158.865,423.308,3147.991,517.3,3149.112,518.578Z" transform="translate(-3149.035 -363.267)" fill="#1a2e35"></path></g></g><g id="Group_56" data-name="Group 56" transform="translate(81.465 92.206)"><path id="Path_121" data-name="Path 121" d="M3276.178,381.129c3.867,10.021,18.461,45.157,26.4,70.373,5.323,16.922,7.35,31.123,8.514,34.857,0,0-40.243-12.926-49.3-12.948-13.955-.035-36.339,29.109-30.848,32.761,8.632,5.741,49.777,25.27,82.636,31.4,17.862,3.333,51.514-19.369,48.855-37.418-3.731-25.33-49.505-92.1-66.921-111.033C3286.463,379.292,3271.465,368.915,3276.178,381.129Z" transform="translate(-3230.086 -373.241)" fill="#ff9581"></path><g id="Group_55" data-name="Group 55" transform="translate(6.571)"><path id="Path_122" data-name="Path 122" d="M3369.249,503.95c-.844,18.247-23.668,33.606-36.9,34.418-22.83,1.385-91.318-18.56-91.318-18.56l26.621-51.289s46.6,15.818,47.787,16.264v-.02c-.412-1.36-11.9-44.514-17.027-58.814-.275-.79-.592-1.6-.89-2.447-1.476-3.961-3.5-9.191-5.742-14.843l-.023-.04c-1.241-3.128-2.552-6.4-3.84-9.625v-.021c-5.629-13.981-11.115-27.289-11.115-27.289,7.845,1.287,15.591,5.411,28.31,18.761C3317.8,403.776,3370.64,473.848,3369.249,503.95Z" transform="translate(-3241.027 -371.683)" fill="#1a2e35"></path><g id="Group_54" data-name="Group 54" transform="translate(11.567 36.975)"><path id="Path_123" data-name="Path 123" d="M3266.469,578.075c1.9-3.63,3.829-7.245,5.737-10.871q2.8-5.328,5.673-10.621a123.073,123.073,0,0,0,5.638-11.135.07.07,0,0,0-.119-.07,92.938,92.938,0,0,0-6.337,10.076c-2.04,3.558-4.026,7.146-6,10.743-1.93,3.524-3.79,7.084-5.621,10.658a91.04,91.04,0,0,0-5.147,11.4c-.054.156.161.311.265.156A108.945,108.945,0,0,0,3266.469,578.075Z" transform="translate(-3260.288 -478.026)" fill="#2b454e"></path><path id="Path_124" data-name="Path 124" d="M3363.438,516.938l-14.231-7.546-.022-.019v-.02c-.412-1.36-11.9-44.514-17.027-58.814-.274-.79-.591-1.6-.89-2.447-1.476-3.961-3.5-9.191-5.743-14.843Z" transform="translate(-3286.345 -433.249)" fill="#2b454e"></path><path id="Path_125" data-name="Path 125" d="M3390.574,573.522a117.874,117.874,0,0,0-12.5-8.021c-2.146-1.214-4.332-2.333-6.583-3.337-2.393-1.068-4.922-1.843-7.3-2.918a.155.155,0,0,0-.133.28c2.22,1,4.331,2.4,6.475,3.573q3.346,1.825,6.728,3.572c4.436,2.281,8.792,4.7,13.2,7.031A.109.109,0,0,0,3390.574,573.522Z" transform="translate(-3301.701 -483.57)" fill="#2b454e"></path></g></g></g><g id="Group_63" data-name="Group 63" transform="translate(0 92.105)"><g id="Group_58" data-name="Group 58" transform="translate(2.971 5.481)"><path id="Path_126" data-name="Path 126" d="M3274.532,491.137c-3.572.048-25.135-5.711-28.276-2.752-19.14,18.043-25.19,14.408-29.264,16.759-31.538,18.145-73.653,39.461-88.686,39.595-22.8.185-31.879-18.947-28.083-37.024,7.491-35.736,55.686-105.413,77.491-123.926,11.563-9.8,10.649,4.983,5.866,21.053-2.8,9.424-7.71,23.436-12.715,37.184-4.433,12.247-16.177,43.548-16.381,44.283v.021c-.018.042-.037.064-.036.085q-.023.125.25.047c1-.184,27.972-12.894,55.093-19.877,9.557-2.461,29.461-5.966,36.6-2.78,4.243,1.894,4.315,4.426,4.315,4.426a10.444,10.444,0,0,1,6.99,2.645,10.214,10.214,0,0,1,3.118,4.732s3.722.52,5.659,2.678a9.819,9.819,0,0,1,2.514,5.3C3274.005,484.923,3274.532,491.137,3274.532,491.137Z" transform="translate(-3099.386 -380.641)" fill="#ff9581"></path><g id="Group_57" data-name="Group 57" transform="translate(80.413 86.255)"><path id="Path_127" data-name="Path 127" d="M3332.226,525.222a53.517,53.517,0,0,0-8.508.955c-.191.034-.184.331.019.309,2.775-.305,5.582-.368,8.371-.462,2.772-.093,5.587-.151,8.359-.1a.016.016,0,0,0,0-.031A45.785,45.785,0,0,0,3332.226,525.222Z" transform="translate(-3269.349 -524.644)" fill="#1a2e35"></path><path id="Path_128" data-name="Path 128" d="M3357.909,537.392a34.466,34.466,0,0,0-15.073-1.33.155.155,0,0,0,.013.309,58.558,58.558,0,0,1,15.05,1.128C3357.962,537.509,3357.966,537.407,3357.909,537.392Z" transform="translate(-3276.983 -528.85)" fill="#1a2e35"></path><path id="Path_129" data-name="Path 129" d="M3372.08,549.99a33.777,33.777,0,0,0-14.255-2.673c-.194,0-.259.285-.056.3a83.317,83.317,0,0,1,14.24,2.588A.117.117,0,0,0,3372.08,549.99Z" transform="translate(-3282.955 -533.471)" fill="#1a2e35"></path><path id="Path_130" data-name="Path 130" d="M3261.952,524.264a65.075,65.075,0,0,0-7.05,1.576c-2.471.609-4.931,1.28-7.349,2.076a140.248,140.248,0,0,0-14.178,5.624.155.155,0,0,0,.108.291c4.722-1.654,9.49-3.2,14.262-4.706,2.346-.738,4.68-1.522,7.018-2.287,2.4-.786,4.9-1.381,7.255-2.274A.155.155,0,0,0,3261.952,524.264Z" transform="translate(-3233.281 -524.263)" fill="#1a2e35"></path></g></g><g id="Group_60" data-name="Group 60"><path id="Path_131" data-name="Path 131" d="M3187.633,468.368c4.991-1.689,7.248-1.7,7.248-1.7l28.374,47.916s-78.154,28.136-94.2,29.782-34.3-10.991-34.61-31.138c-.433-28.315,45.741-96.313,68.966-122.607,10.644-12.051,23.056-20.8,26.22-18.828,3.74,2.333-3.051,17.485-6.629,28.788-6.605,20.867-30.277,82.235-30.277,82.235S3181.688,470.381,3187.633,468.368Z" transform="translate(-3094.44 -371.515)" fill="#1a2e35"></path><g id="Group_59" data-name="Group 59" transform="translate(26.993 45.195)"><path id="Path_132" data-name="Path 132" d="M3212.579,529.887c-4.4.258-23.437,6.887-32.773,10.893a160.961,160.961,0,0,0-26.647,14.4c-4.751,3.206-9.259,6.7-13.712,10.3-.153.124.015.371.178.253a282.806,282.806,0,0,1,53.026-28.845c5.329-2.077,14.491-5.188,19.7-6.554C3213.819,529.946,3212.714,529.879,3212.579,529.887Z" transform="translate(-3139.385 -479.968)" fill="#2b454e"></path><path id="Path_133" data-name="Path 133" d="M3214.464,454.786c-1.191,1.921-2.4,3.831-3.413,5.853-.048.095-.092.191-.14.285q2.269-6.9,4.321-13.849c.085-.285-.387-.438-.5-.162-6.715,17.009-12.947,34.223-18.994,51.482-1.691,4.827-3.176,9.7-4.712,14.577-.054.168.222.253.292.095,1.845-4.181,3.7-8.332,5.395-12.584s3.256-8.55,4.844-12.839q4.163-11.25,7.965-22.61c.8-1.327,1.6-2.65,2.358-4,1.1-1.969,2-4.031,2.918-6.088A.186.186,0,0,0,3214.464,454.786Z" transform="translate(-3160.011 -446.768)" fill="#2b454e"></path><path id="Path_134" data-name="Path 134" d="M3264.748,571.249c-2.079-3.531-4.129-7.078-6.2-10.614q-3.043-5.194-6.021-10.427a123.028,123.028,0,0,0-6.475-10.67.07.07,0,0,0-.123.064,93,93,0,0,0,5.209,10.7c1.943,3.611,3.941,7.194,5.954,10.766,1.972,3.5,4.013,6.959,6.081,10.4a91.061,91.061,0,0,0,6.958,10.39c.1.129.348.027.272-.143A109,109,0,0,0,3264.748,571.249Z" transform="translate(-3181.94 -483.812)" fill="#2b454e"></path><path id="Path_135" data-name="Path 135" d="M3251.943,600.8c-2.353-4.642-6.017-9.2-8.729-13.616-.1-.168-.353.008-.253.175,2.462,4.142,4.72,8.606,7.072,12.817-10.734,4.431-22.13,8.382-33.079,12.262-11.235,3.982-22.542,7.758-34,11.059-6.407,1.846-12.824,3.847-19.272,5.54-.4.1-.294.435.118.358a292.492,292.492,0,0,0,34.208-9.1c11.451-3.633,22.752-7.691,34-11.895C3238.335,606.042,3252.133,601.178,3251.943,600.8Z" transform="translate(-3148.99 -502.829)" fill="#2b454e"></path></g></g><g id="Group_62" data-name="Group 62" transform="translate(37.684 65.784)"><path id="Path_136" data-name="Path 136" d="M3230.836,507.036a380.885,380.885,0,0,0-39.35,12.978c-.2.07-.383.139-.564.208-6.7,2.634-10.856,4.588-11.851,4.752a1.825,1.825,0,0,1-.21-.135v-.02a8.943,8.943,0,0,0-2.074-1.141c-1.89-.677-20.05-2.945-19.59-8.57.442-5.563,7.842-5.218,8.93-5.141-1.177-.258-11.033-2.566-7.822-7.488,2.268-3.491,12.028-2.979,13.011-2.939-1-.327-10.049-3.28-6.935-8.3,2.229-3.6,13.127-3.128,14.384-2.915-1.019-.387-9.089-1.739-5.322-6.07,2.615-3.015,23.134.052,32.254,4.6C3219.257,493.623,3230.836,507.036,3230.836,507.036Z" transform="translate(-3157.187 -481.051)" fill="#ff9581"></path><g id="Group_61" data-name="Group 61" transform="translate(8.856 7.171)"><path id="Path_137" data-name="Path 137" d="M3197.375,539.191c-.2.07-.383.139-.564.208-3.151-2.445-15.067-8.758-24.429-9.958-.581-.074-.618-.406,0-.378C3183.94,529.586,3194.333,536.393,3197.375,539.191Z" transform="translate(-3171.932 -507.399)" fill="#1a2e35"></path><path id="Path_138" data-name="Path 138" d="M3181.192,512.233c12.923,2.566,18.764,5.419,29.876,12.479.157.1.332-.131.181-.244-10.358-7.753-16.8-11.592-29.947-12.562C3180.708,511.862,3180.6,512.116,3181.192,512.233Z" transform="translate(-3175.474 -500.544)" fill="#1a2e35"></path><path id="Path_139" data-name="Path 139" d="M3193.42,493.358c12.4,3.3,18.934,6.152,28.92,14.233.236.19.526-.1.308-.31-9.412-9.127-17.543-12.746-29.11-14.264C3192.748,492.913,3192.64,493.151,3193.42,493.358Z" transform="translate(-3180.302 -492.991)" fill="#1a2e35"></path></g></g></g><g id="Group_78" data-name="Group 78" transform="translate(72.613)"><g id="Group_76" data-name="Group 76"><g id="Group_65" data-name="Group 65" transform="translate(20.093 67.856)"><g id="Group_64" data-name="Group 64" transform="translate(0.002)"><path id="Path_140" data-name="Path 140" d="M3277.835,378.989c-7.343,2.641-21.6-7.421-27.78-16.185-.42-.6-.2-7.468-.336-15.821-.1-5.069-.331-10.711-.913-15.844l33.081,4.168s-1.943,11.119-.873,20.062a11.539,11.539,0,0,0,.46,2.081c.022.1.063.21.086.344C3282.666,361.72,3284.931,376.432,3277.835,378.989Z" transform="translate(-3248.805 -331.138)" fill="#ff9581"></path></g><path id="Path_141" data-name="Path 141" d="M3281.568,357.791a5.277,5.277,0,0,1,.17.722c-19.8-.838-27.337-9.547-32.214-17.9-.148-3.185-.361-6.412-.722-9.47l33.084,4.162s-1.954,11.127-.871,20.067a10.625,10.625,0,0,0,.468,2.081C3281.5,357.536,3281.525,357.664,3281.568,357.791Z" transform="translate(-3248.802 -331.139)" fill="#1a2e35"></path></g><g id="Group_75" data-name="Group 75"><g id="Group_66" data-name="Group 66" transform="translate(6.338 10.461)"><path id="Path_142" data-name="Path 142" d="M3226.1,258.266c-1.794,11.878,9.045,43.827,18.207,49.957,13.283,8.887,32.619,7.075,39.562-8.341,6.729-14.943-8.134-56.331-18.143-61.653C3250.977,230.39,3228.746,240.724,3226.1,258.266Z" transform="translate(-3225.899 -235.57)" fill="#ff9581"></path></g><g id="Group_71" data-name="Group 71" transform="translate(28.225 32.318)"><g id="Group_67" data-name="Group 67" transform="translate(4.356 13.547)"><path id="Path_143" data-name="Path 143" d="M3276.82,297.282c-.044-.076-.135.159-.1.246.787,2.132,1.33,4.708-.381,6.074-.053.042-.011.148.058.115C3278.665,302.587,3277.908,299.176,3276.82,297.282Z" transform="translate(-3272.279 -295.618)" fill="#1a2e35"></path><path id="Path_144" data-name="Path 144" d="M3271.461,294.577c-3.555.894-1.5,7.938,1.788,7.11C3276.49,300.871,3274.44,293.827,3271.461,294.577Z" transform="translate(-3269.596 -294.521)" fill="#1a2e35"></path></g><g id="Group_68" data-name="Group 68" transform="translate(22.149 8.209)"><path id="Path_145" data-name="Path 145" d="M3299.26,290.617c-.008-.088.2.053.224.144.566,2.2,1.584,4.629,3.769,4.779.068,0,.094.117.017.127C3300.763,296.029,3299.443,292.794,3299.26,290.617Z" transform="translate(-3299.238 -287.613)" fill="#1a2e35"></path><path id="Path_146" data-name="Path 146" d="M3300.531,285.792c3.432-1.287,5.754,5.671,2.575,6.864C3299.977,293.83,3297.654,286.87,3300.531,285.792Z" transform="translate(-3299.223 -285.634)" fill="#1a2e35"></path></g><path id="Path_147" data-name="Path 147" d="M3264.846,286.59a28.659,28.659,0,0,0,2.448-1.755c.932-.683,1.745-1.131,2.156-2.265a1.552,1.552,0,0,0-.764-1.733c-1.329-.628-2.678-.074-3.834.7a5.655,5.655,0,0,0-2.443,3.258A1.654,1.654,0,0,0,3264.846,286.59Z" transform="translate(-3262.342 -275.4)" fill="#1a2e35"></path><path id="Path_148" data-name="Path 148" d="M3299.778,275.993a28.479,28.479,0,0,1-3.011.088,4.86,4.86,0,0,1-3.088-.5,1.551,1.551,0,0,1-.443-1.842c.676-1.305,2.084-1.682,3.475-1.764a5.649,5.649,0,0,1,3.917,1.11A1.654,1.654,0,0,1,3299.778,275.993Z" transform="translate(-3274.628 -271.965)" fill="#1a2e35"></path><path id="Path_149" data-name="Path 149" d="M3285.433,330.639a3.461,3.461,0,0,0,2.208.746,6,6,0,0,0,2.186-1.231.079.079,0,0,1,.126.085,3.057,3.057,0,0,1-2.425,1.99,2.418,2.418,0,0,1-2.277-1.431C3285.181,330.681,3285.335,330.587,3285.433,330.639Z" transform="translate(-3271.486 -295.2)" fill="#1a2e35"></path><g id="Group_70" data-name="Group 70" transform="translate(14.253 1.78)"><g id="Group_69" data-name="Group 69"><path id="Path_150" data-name="Path 150" d="M3286.162,301.387a7.735,7.735,0,0,0,5.92,1.862,9.727,9.727,0,0,0,2.709-.655,2.73,2.73,0,0,0,.493-.207c.154-.065.292-.126.457-.213a.565.565,0,0,0,.3-.616l-.005-.016a1.114,1.114,0,0,0-.085-.217l0-.017-.059-.19c-.443-1.694-1.351-4.2-1.351-4.2.7.129,4.243.626,3.938-.238-2.548-7.139-5.381-15.079-9.425-21.645a.21.21,0,0,0-.382.172c2.177,6.959,5.564,13.488,7.862,20.442a13.548,13.548,0,0,0-3.816-.044c-.219.138,1.838,4.815,1.976,5.591a.307.307,0,0,1,.009.085c-2.718,1.182-5.093.948-8.385-.15C3286.11,301.054,3285.98,301.251,3286.162,301.387Z" transform="translate(-3286.075 -274.928)" fill="#1a2e35"></path></g></g></g><g id="Group_73" data-name="Group 73"><path id="Path_151" data-name="Path 151" d="M3229.586,288.4c1.875-1.532,4.24-9.391,5.34-12.638,1.142-3.373-2.247-17.044-3.353-21.108a22.417,22.417,0,0,0-5.46,11.36C3225.319,270.96,3226.857,279.728,3229.586,288.4Z" transform="translate(-3219.563 -232.731)" fill="#1a2e35" opacity="0.2"></path><g id="Group_72" data-name="Group 72"><path id="Path_152" data-name="Path 152" d="M3271.583,261.141a10.951,10.951,0,0,1-8.578,6.325,11.164,11.164,0,0,1-10.1-4.026.087.087,0,0,0-.14.1c2.395,3.252,6.205,5.4,10.333,4.806a11.269,11.269,0,0,0,8.729-7.1A.135.135,0,0,0,3271.583,261.141Z" transform="translate(-3230.286 -235.292)" fill="#1a2e35"></path><path id="Path_153" data-name="Path 153" d="M3245.6,222.664c-6.054,1.885-10.678,6.865-11.713,11.656a12.277,12.277,0,0,0,1.062,8.016c.047.1.259.016.219-.088a13.476,13.476,0,0,1,2.743-13.46,17.369,17.369,0,0,1,14.253-6.017,10.994,10.994,0,0,1,6.979,2.922c.182.187.6-.088.434-.285C3256.833,222.08,3251.08,220.958,3245.6,222.664Z" transform="translate(-3222.646 -219.639)" fill="#1a2e35"></path><path id="Path_154" data-name="Path 154" d="M3305.2,224.236a13.977,13.977,0,0,0-7.8-5.578c-4.4-1.24-8.533.317-12.6,1.948a.092.092,0,0,0,.067.172c3.47-1.377,7.07-2.571,10.837-1.835a13.742,13.742,0,0,1,7.956,4.672,13.394,13.394,0,0,1-.736,17.521,13.6,13.6,0,0,1-10.011,4.015c-.145,0-.187.219-.037.228a13.68,13.68,0,0,0,12.331-21.143Z" transform="translate(-3243.064 -218.175)" fill="#1a2e35"></path><path id="Path_155" data-name="Path 155" d="M3221.808,258.109s-8.878-9.272-5.821-16.958c1.731-4.355,10.97-6.458,10.97-6.458s1.455-6.065,8.51-9.922c7.13-3.9,17.448-2.006,17.448-2.006s6.068-6.188,13.942-4.229c10.979,2.733,13.864,17.466,5.656,24.783-5.764,5.137-16.507,1.786-16.507,1.786-.839.365-8.253,8.273-17.256,2.21,0,0-4.113,6.43-10.005,4.4C3228.745,251.715,3227.648,257.37,3221.808,258.109Z" transform="translate(-3215.346 -218.152)" fill="#1a2e35"></path></g></g><g id="Group_74" data-name="Group 74" transform="translate(2.724 52.224)"><path id="Path_156" data-name="Path 156" d="M3234.651,311.768s-9.177-9.342-13.537-5.9,3.782,17.854,9.772,19.006a5.814,5.814,0,0,0,7.166-4.372Z" transform="translate(-3219.881 -305.109)" fill="#ff9581"></path><path id="Path_157" data-name="Path 157" d="M3225.945,313.147a.079.079,0,0,0,0,.156c4.223.938,6.919,4.254,9.015,7.811-1.422-1.266-3.157-1.8-4.882-.07-.09.091.035.235.143.193a3.577,3.577,0,0,1,4.089.579,17.265,17.265,0,0,1,2.386,2.828c.245.323.851.026.647-.358-.014-.028-.031-.058-.047-.086C3236.545,319.142,3231.442,312.745,3225.945,313.147Z" transform="translate(-3222.276 -308.312)" fill="#1a2e35"></path></g></g></g><g id="Group_77" data-name="Group 77" transform="translate(14.667 90.04)"><path id="Path_158" data-name="Path 158" d="M3277.853,371.848l-7.037,19.466-24.625-23.238-6.423,8s24.649,37.469,24.729,35.731l7.237-16.744,11.786,11.009-2.014-28.688Z" transform="translate(-3239.768 -368.076)" fill="#ececec"></path><path id="Path_159" data-name="Path 159" d="M3284.013,398.1c-.492-4.725-.854-9.5-1.564-14.2-.025-.167-.29-.231-.323-.032-.775,4.611,1.2,22.672,1.344,27.014-.016-.016-.036-.032-.052-.048-.492-.476-10.9-9.667-11-9.511-1.606,2.676-6.921,14.871-7.274,15.975-3.9-5.952-18.8-27.564-23.357-33.159a.164.164,0,0,0-.278.175c3.484,6.31,23.219,35.425,23.5,35.331.2.143,6.811-14.88,7.561-17.7,1.78,2.021,12.331,12.437,12.339,11.731A149.2,149.2,0,0,0,3284.013,398.1Z" transform="translate(-3240.455 -374.334)" fill="#1a2e35"></path></g></g></g></g></g><rect id="Rectangle_30" data-name="Rectangle 30" width="250.52" height="258.656" transform="translate(191.705 372.412)" fill="#ffc800"></rect><g id="Group_115" data-name="Group 115" transform="translate(184.774 369.7)"><g id="Group_86" data-name="Group 86" transform="translate(31.411 69.263)"><g id="Group_82" data-name="Group 82" transform="translate(25.484 6.62)"><path id="Path_160" data-name="Path 160" d="M3380.276,809.292c-6.591-1.561-23.667,2.9-29.493,11.634s-5.567,23.022-2.657,24.46,15.516.558,24.23-4.077S3383.522,810.061,3380.276,809.292Z" transform="translate(-3344.153 -808.889)" fill="#1a2e35"></path><path id="Path_161" data-name="Path 161" d="M3384.219,809.267c.221-.044.254-.411,0-.422-5.784-.234-12.013,1.623-17.551,3.128-4.469,1.215-9.061,2.666-12.7,5.642a15.533,15.533,0,0,0-5.827,11.631c-.262,5.1.37,11.28,2.807,15.84.072.134.327.1.282-.075-2.517-9.683-4.669-21.5,5.01-27.918C3364.454,811.64,3374.872,811.148,3384.219,809.267Z" transform="translate(-3348.08 -808.826)" fill="#1a2e35"></path></g><g id="Group_83" data-name="Group 83" transform="translate(4.086 40.619)"><path id="Path_162" data-name="Path 162" d="M3413.481,865.437c-5.8.658-20.991,11.43-23.677,22.391s5.984,27.345,8.8,28.567,15.757-9.126,20.04-16.8c2.863-5.131.757-11.2-.414-17.215C3416.5,873.5,3414.382,865.335,3413.481,865.437Z" transform="translate(-3387.115 -865.437)" fill="#1a2e35"></path><path id="Path_163" data-name="Path 163" d="M3407.928,898.411c1.89-11.18-4.288-22.371-7.952-32.55-.039-.107-.219-.062-.2.052,1.967,9.742,7.679,18.551,7.683,28.71,0,6.029-2.186,11.911-7.209,15.532-4.354,3.137-9.783,4.518-14.8,6.211-.332.112-.123.6.2.5C3395.663,913.764,3405.978,909.949,3407.928,898.411Z" transform="translate(-3372.91 -865.582)" fill="#1a2e35"></path><path id="Path_164" data-name="Path 164" d="M3427.243,866.807c.292-.137.105-.6-.191-.465-8.284,3.766-18.271,9.3-22.8,17.557-4.905,8.95-.27,18.47,3.844,26.678.052.1.217.037.166-.068-4.057-8.331-8.32-18.659-2.764-27.367C3410.279,875.654,3419.43,870.492,3427.243,866.807Z" transform="translate(-3402.142 -865.788)" fill="#1a2e35"></path></g><g id="Group_84" data-name="Group 84" transform="translate(0 91.296)"><path id="Path_165" data-name="Path 165" d="M3372.419,949.817c3.64,2.371,8.577,9.517,9.076,17.362.855,13.428,6.095,11.33,20.158,16.3,11.885,4.2,13.091,18.1,5.911,24.18,0,0,4.624-8.025-3.173-12.978-9.314-5.918-32.8,2.119-42.59-12.884C3349.138,962.389,3372.419,949.817,3372.419,949.817Z" transform="translate(-3356.183 -949.817)" fill="#1a2e35"></path><path id="Path_166" data-name="Path 166" d="M3355.608,960.639c-.141-.2.192-.446.344-.255a19.483,19.483,0,0,1,3.385,6.144c.952,2.921.7,5.949,1.444,8.9,1.892,7.508,10.657,8.142,16.95,9.235,8.436,1.465,14.745,7.349,14.363,16.349a.1.1,0,0,1-.2-.006,15.208,15.208,0,0,0-7.715-13.746c-4.755-2.6-10.47-2.061-15.5-3.828-3.441-1.209-6.8-3.063-8.087-6.667a30.041,30.041,0,0,1-.969-6.209A21.168,21.168,0,0,0,3355.608,960.639Z" transform="translate(-3334.81 -954.01)" fill="#1a2e35"></path><path id="Path_167" data-name="Path 167" d="M3391.349,952.094c.084-.054.186.079.106.144-5.294,4.265-10.876,8.518-12.966,15.325-2.249,7.327.848,15.206,6.265,20.319,6.068,5.725,13.369,4.024,20.865,3.335,5.422-.5,10.909-.577,15.944,1.769.154.072.039.326-.12.272-8.207-2.8-16.154-1.079-24.546-.582-6.856.407-11.922-2.475-15.731-8.153C3372.762,972,3379.964,959.4,3391.349,952.094Z" transform="translate(-3377.507 -950.721)" fill="#1a2e35"></path></g><g id="Group_85" data-name="Group 85" transform="translate(52.516)"><path id="Path_168" data-name="Path 168" d="M3359.99,798.689c-1.8-2.361-5.431.482-3.628,2.847S3361.792,801.054,3359.99,798.689Z" transform="translate(-3355.872 -797.802)" fill="#ffc800"></path><path id="Path_169" data-name="Path 169" d="M3357.113,805.229c-1.8-2.361-5.431.482-3.628,2.847S3358.917,807.594,3357.113,805.229Z" transform="translate(-3351.269 -800.415)" fill="#ffc800"></path><path id="Path_170" data-name="Path 170" d="M3353.115,811.232c-1.8-2.361-5.43.482-3.628,2.847S3354.918,813.6,3353.115,811.232Z" transform="translate(-3344.871 -802.812)" fill="#ffc800"></path><path id="Path_171" data-name="Path 171" d="M3348.491,816.506c-1.8-2.361-5.431.482-3.627,2.847S3350.294,818.871,3348.491,816.506Z" transform="translate(-3337.469 -804.919)" fill="#ffc800"></path><path id="Path_172" data-name="Path 172" d="M3342.907,821.008c-1.8-2.361-5.431.482-3.628,2.847S3344.71,823.372,3342.907,821.008Z" transform="translate(-3328.531 -806.717)" fill="#ffc800"></path><path id="Path_173" data-name="Path 173" d="M3336.839,824.309c-1.8-2.361-5.431.482-3.629,2.847S3338.642,826.674,3336.839,824.309Z" transform="translate(-3318.818 -808.036)" fill="#ffc800"></path></g></g><g id="Group_114" data-name="Group 114" transform="translate(0 0)"><g id="Group_92" data-name="Group 92" transform="translate(98.739)"><path id="Path_174" data-name="Path 174" d="M3041.078,853.081c9.969,12.258,63.272,50.913,108.265,50.193,15.284-.244,57.76-65.488,65.61-90.3,5.635-17.812-32.2-26.811-42.886-24.234-13.335,3.214-39.344,59.177-44.481,59.535-15.274,1.063-41.52-8.144-73.74-11.405C3037.3,835.193,3033.4,843.639,3041.078,853.081Z" transform="translate(-3034.402 -724.745)" fill="#c36358"></path><g id="Group_90" data-name="Group 90" transform="translate(118.786)"><g id="Group_88" data-name="Group 88" transform="translate(10.756)"><path id="Path_175" data-name="Path 175" d="M3060.018,774.8c2.836-6.194,16.194-40.65,17.277-49.521s2.35-34.624-4.359-36.143-7.683,5.991-7.683,5.991-1.188-10.96-8.08-11.873-8.023,10.819-8.023,10.819-2.04-11.166-8.98-11.586-6.1,11.568-6.1,11.568-1.389-10.3-7.253-8.236c-7.054,2.477-2.348,21.171-4.278,30.874-.438,2.2-12.065,44.03-12.065,44.03Z" transform="translate(-3010.471 -682.474)" fill="#c36358"></path><g id="Group_87" data-name="Group 87" transform="translate(21.705 9.949)"><path id="Path_176" data-name="Path 176" d="M3079.244,699.641c3.427,13.755,2.548,20.365-1.826,33.616-.086.259.281.444.395.182,5.465-12.586,7.764-20.719,2.089-34C3079.625,698.791,3079.082,698.987,3079.244,699.641Z" transform="translate(-3077.405 -699.041)" fill="#1a2e35"></path><path id="Path_177" data-name="Path 177" d="M3056.354,699.644c2.313,14.6,1.422,21.776-2.139,35.992-.05.2.285.308.352.108,4.659-13.653,6.768-21.819,2.541-36.1C3056.919,699,3056.248,698.977,3056.354,699.644Z" transform="translate(-3039.673 -699.085)" fill="#1a2e35"></path><path id="Path_178" data-name="Path 178" d="M3033.6,704.294c1.219,14.294.581,22.207-4.647,35.564a.264.264,0,0,0,.479.221c6.655-13.1,7.524-22.97,4.606-35.775C3033.843,703.431,3033.526,703.4,3033.6,704.294Z" transform="translate(-3000.731 -700.876)" fill="#1a2e35"></path></g></g><g id="Group_89" data-name="Group 89" transform="translate(0 25.246)"><path id="Path_179" data-name="Path 179" d="M3076.894,784s-1.973-17.652-1.128-25.6,14.888-36.4,21.2-33.715c8.158,3.466,3.286,21.489-.254,30,0,0,18.876,8,18.179,21.691S3076.894,784,3076.894,784Z" transform="translate(-3075.556 -724.511)" fill="#c36358"></path><path id="Path_180" data-name="Path 180" d="M3077.283,727.568c5.159,8.527-.208,19.405-3.025,27.922a.82.82,0,0,0,.759,1.114c7.688,3.882,17.4,11.595,18.677,20.6a.208.208,0,0,0,.415-.023c-.057-9.839-8.982-18.2-17.676-21.908,3.025-8.689,7.929-19.835.929-27.754A.048.048,0,0,0,3077.283,727.568Z" transform="translate(-3053.938 -725.703)" fill="#1a2e35"></path></g></g><g id="Group_91" data-name="Group 91" transform="translate(0 110.447)"><path id="Path_181" data-name="Path 181" d="M3292.049,875.128,3273.485,918.1s-28.075-13.35-45.141-30.626,1.9-23.048,18.434-20.537S3292.049,875.128,3292.049,875.128Z" transform="translate(-3221.638 -866.377)" fill="#ececec"></path><path id="Path_182" data-name="Path 182" d="M3249.84,891.4c17.073,17.264,45.146,30.621,45.146,30.621l5.649-13.059-56.549-32.786C3242,879.61,3243.152,884.621,3249.84,891.4Z" transform="translate(-3243.141 -870.289)" fill="#c8c8c8"></path><path id="Path_183" data-name="Path 183" d="M3237.79,917.817c9.162-17.235,14.575-33.57,16.04-36.883.069-.156-.191-.25-.253-.088-1.268,3.325-10.1,21.571-16.065,36.874C3237.443,917.9,3237.7,917.983,3237.79,917.817Z" transform="translate(-3192.957 -872.123)" fill="#1a2e35"></path></g></g><g id="Group_95" data-name="Group 95" transform="translate(33.904 106.815)"><path id="Path_184" data-name="Path 184" d="M3358.29,957.554l7.614,58.143-121.683.009s16.1-109.034,42.083-142.513c13-16.745,30.415-16.308,42.725-3.507,2.686,2.792,29.881,41.625,34.665,57.66C3367.881,941.5,3358.29,957.554,3358.29,957.554Z" transform="translate(-3244.221 -860.329)" fill="#ececec"></path><g id="Group_94" data-name="Group 94" transform="translate(78.649 15.171)"><path id="Path_185" data-name="Path 185" d="M3280.874,885.59l7.679,20.611q3.813,10.306,7.3,20.705c2.166,6.962,4.78,13.918,3.739,21.03a53.487,53.487,0,0,1-6.9,20.257l-.167.294.034.3c1.054,9.24,2.3,18.46,3.438,27.691q1.75,13.842,3.724,27.658-1.163-13.907-2.521-27.794c-.942-9.253-1.779-18.518-2.806-27.762l-.134.59a55.349,55.349,0,0,0,7.426-21.008,30.132,30.132,0,0,0-.8-11.26c-.932-3.6-2.059-7.111-3.25-10.593-2.35-6.975-5.133-13.774-7.91-20.565S3283.967,892.243,3280.874,885.59Z" transform="translate(-3280.874 -885.59)" fill="#1a2e35"></path><g id="Group_93" data-name="Group 93" transform="translate(13.722 25.351)"><path id="Path_186" data-name="Path 186" d="M3290.823,929.3a1.81,1.81,0,0,1-1.338,2.1,1.657,1.657,0,0,1-1.895-1.472,1.811,1.811,0,0,1,1.337-2.1A1.658,1.658,0,0,1,3290.823,929.3Z" transform="translate(-3287.566 -927.801)" fill="#1a2e35"></path><path id="Path_187" data-name="Path 187" d="M3278.546,962.735a1.811,1.811,0,0,1-1.338,2.1,1.657,1.657,0,0,1-1.9-1.472,1.81,1.81,0,0,1,1.338-2.1A1.658,1.658,0,0,1,3278.546,962.735Z" transform="translate(-3267.916 -941.156)" fill="#1a2e35"></path><path id="Path_188" data-name="Path 188" d="M3277,996.821a1.811,1.811,0,0,1-1.338,2.1,1.657,1.657,0,0,1-1.895-1.472,1.809,1.809,0,0,1,1.338-2.1A1.657,1.657,0,0,1,3277,996.821Z" transform="translate(-3265.436 -954.771)" fill="#1a2e35"></path><path id="Path_189" data-name="Path 189" d="M3286.471,1025.038a1.811,1.811,0,0,1-1.338,2.1,1.658,1.658,0,0,1-1.895-1.473,1.811,1.811,0,0,1,1.338-2.1A1.658,1.658,0,0,1,3286.471,1025.038Z" transform="translate(-3280.6 -966.041)" fill="#1a2e35"></path><path id="Path_190" data-name="Path 190" d="M3282.786,1055.843a1.81,1.81,0,0,1-1.338,2.1,1.658,1.658,0,0,1-1.895-1.473,1.81,1.81,0,0,1,1.338-2.1A1.657,1.657,0,0,1,3282.786,1055.843Z" transform="translate(-3274.703 -978.346)" fill="#1a2e35"></path><path id="Path_191" data-name="Path 191" d="M3279.432,1086.257a1.81,1.81,0,0,1-1.338,2.1,1.657,1.657,0,0,1-1.895-1.472,1.81,1.81,0,0,1,1.337-2.1A1.658,1.658,0,0,1,3279.432,1086.257Z" transform="translate(-3269.334 -990.494)" fill="#1a2e35"></path></g></g></g><g id="Group_99" data-name="Group 99" transform="translate(0 112.855)"><path id="Path_192" data-name="Path 192" d="M3347.166,1191.426c-6.122,4.165-16.443-14.186-19.956-18.117-3.513-3.948-5.019-3.814-4.818-.8l-7.979-31.7c4.132,3.211,12.914,10.12,17.581,14.653C3338.25,1161.533,3353.306,1187.261,3347.166,1191.426Z" transform="translate(-3235.177 -978.399)" fill="#c36358"></path><path id="Path_193" data-name="Path 193" d="M3417.455,882.768c-26,20.955-58.757,57.824-65.435,81.653-5.155,18.392,20.707,82.284,28.418,97.2,3.36,6.5,47.869-13.286,49.83-20.858s-29.068-62.6-29.383-68.444,19.983-44.408,33.822-70.489C3451.465,870.241,3439.559,864.95,3417.455,882.768Z" transform="translate(-3351.345 -871.286)" fill="#c36358"></path><g id="Group_97" data-name="Group 97" transform="translate(27.814 160.668)"><path id="Path_194" data-name="Path 194" d="M3402.239,1208.453c-4.1,4.466-12.4-.937-12.4-.937s7.377,9.117,1.606,12.663c-5.788,3.546-13.65-4.249-13.65-4.249s6.323,8.749.318,11.86c-6.022,3.128-13.784-3.68-13.784-3.68s.418,3.362-4.818,3.647c-7.511.435-18.234-11.76-22.332-19.438-4.1-7.7-13.416-38.893-14.754-43.694l49.147-26.714s.87.652,2.275,1.74l7.979,31.7c.134,1.974,5.755,14.136,7.8,17.632C3394.243,1196.877,3406.839,1203.451,3402.239,1208.453Z" transform="translate(-3322.429 -1137.91)" fill="#c36358"></path><g id="Group_96" data-name="Group 96" transform="translate(23.137 42.366)"><path id="Path_195" data-name="Path 195" d="M3364.292,1235.247c-11.018-8.348-14.395-13.906-19.18-26.644-.093-.249-.485-.166-.411.1,3.551,12.9,6.781,20.483,19.215,27.1C3364.524,1236.125,3364.816,1235.644,3364.292,1235.247Z" transform="translate(-3320.268 -1208.453)" fill="#1a2e35"></path><path id="Path_196" data-name="Path 196" d="M3384.284,1249.13c-10.686-9.67-14.4-15.666-20.395-28.64-.085-.183-.4-.059-.334.134,4.815,13.219,8.21,20.709,20.156,28.968C3384.252,1249.967,3384.773,1249.571,3384.284,1249.13Z" transform="translate(-3351.505 -1213.226)" fill="#1a2e35"></path><path id="Path_197" data-name="Path 197" d="M3405.42,1261.141c-9.67-10.109-14.027-16.507-18.229-29.849a.257.257,0,0,0-.5.125c2.961,14.021,8.339,22.046,18.39,29.985C3405.767,1261.943,3406.029,1261.776,3405.42,1261.141Z" transform="translate(-3386.685 -1217.501)" fill="#1a2e35"></path></g></g><g id="Group_98" data-name="Group 98" transform="translate(33.478)"><path id="Path_198" data-name="Path 198" d="M3386.349,939.226l-37.51-28s19.484-24.225,40.241-36.83,21.982,7.181,15.713,22.686S3386.349,939.226,3386.349,939.226Z" transform="translate(-3348.839 -870.386)" fill="#ececec"></path><path id="Path_199" data-name="Path 199" d="M3381.229,929.159c14.647,12.9,29.286,21.947,32.17,24.139.136.1.288-.128.145-.225-2.942-2-18.65-14.814-32.156-24.162C3381.232,928.8,3381.088,929.035,3381.229,929.159Z" transform="translate(-3373.741 -893.751)" fill="#1a2e35"></path><path id="Path_200" data-name="Path 200" d="M3370.287,946.852c2.291-5.126,5.415-12.586,8-17.573a.066.066,0,0,1,.119.053c-1.015,2.915-2.172,5.806-3.378,8.674.1-.145.185-.3.285-.443.941-1.343,1.9-2.655,2.942-3.925.036-.044.1.016.075.061-.792,1.456-1.639,2.876-2.56,4.255-.573.858-1.185,1.689-1.795,2.522-.651,1.512-2.17,5.256-2.826,6.753-1.1,2.516-6.506,16.743-6.74,16.593a46.017,46.017,0,0,1-3.77-2.83c-.182-.157.1-.489.282-.338.668.56,2.363,1.7,2.644,1.911,1.225-2.573,2.228-5.291,3.343-7.915C3368.014,952.045,3369.131,949.439,3370.287,946.852Z" transform="translate(-3326.175 -893.897)" fill="#1a2e35"></path></g></g><g id="Group_113" data-name="Group 113" transform="translate(81.416 19.118)"><g id="Group_100" data-name="Group 100" transform="translate(11.653 54.799)"><path id="Path_201" data-name="Path 201" d="M3302.519,843.252c.628,2.16,11.819,15.8,21.787,14.8,3.247-.332,2.229-18.13,2.229-18.13l.226-1.331,3.139-18.635-22.37-12.73-3.224-1.671s-.523,5.155-1.109,11.581c-.029.3-.058.6-.084.915-.043.362-.088.7-.111,1.044-.1.958-.2,1.938-.275,2.916-.062.744-.126,1.467-.162,2.25-.057.785-.1,1.548-.153,2.333C3302.02,834.342,3302.266,842.335,3302.519,843.252Z" transform="translate(-3302.207 -805.552)" fill="#c36358"></path><path id="Path_202" data-name="Path 202" d="M3302.207,817.133a37.908,37.908,0,0,0,23.564,21.455l3.139-18.635-22.37-12.73-3.224-1.671S3302.794,810.707,3302.207,817.133Z" transform="translate(-3301.217 -805.552)" fill="#1a2e35"></path></g><g id="Group_110" data-name="Group 110"><path id="Path_203" data-name="Path 203" d="M3321.68,751.711c6.739,32.474-11.951,40.177-18.955,41.622-6.358,1.312-28.175,4.972-38.233-26.632s2.911-45,17.293-48.773S3314.941,719.236,3321.68,751.711Z" transform="translate(-3258.984 -715.327)" fill="#c36358"></path><g id="Group_106" data-name="Group 106" transform="translate(27.113 25.528)"><path id="Path_204" data-name="Path 204" d="M3284.556,760.021a21.528,21.528,0,0,1-2.289-.093,3.7,3.7,0,0,1-2.316-.54,1.178,1.178,0,0,1-.238-1.42,2.925,2.925,0,0,1,2.729-1.155,4.3,4.3,0,0,1,2.914,1.05A1.258,1.258,0,0,1,3284.556,760.021Z" transform="translate(-3259.932 -756.813)" fill="#1a2e35"></path><path id="Path_205" data-name="Path 205" d="M3313.25,767.754a21.657,21.657,0,0,0,2.131-.84,3.7,3.7,0,0,0,2.01-1.271,1.181,1.181,0,0,0-.241-1.42,2.926,2.926,0,0,0-2.958-.194,4.3,4.3,0,0,0-2.407,1.949A1.259,1.259,0,0,0,3313.25,767.754Z" transform="translate(-3310.955 -759.575)" fill="#1a2e35"></path><g id="Group_102" data-name="Group 102" transform="translate(0 13.264)"><g id="Group_101" data-name="Group 101" transform="translate(3.372)"><path id="Path_206" data-name="Path 206" d="M3309.508,782.127c-.033-.081-.153.139-.133.229.5,2.2.7,4.812-1.166,5.935-.058.035-.03.145.042.121C3310.633,787.594,3310.333,784.136,3309.508,782.127Z" transform="translate(-3304.834 -780.182)" fill="#1a2e35"></path><path id="Path_207" data-name="Path 207" d="M3310.728,778.912c-3.619.417-2.518,7.624.835,7.237C3314.863,785.768,3313.76,778.562,3310.728,778.912Z" transform="translate(-3308.482 -778.899)" fill="#1a2e35"></path></g><path id="Path_208" data-name="Path 208" d="M3318.932,779.874c-.567.5-1.074,1.318-1.82,1.508-.865.222-1.644-.432-2.329-1.07-.071-.066-.123.007-.111.1.19,1.384.938,2.719,2.45,2.7,1.379-.019,2.162-1.39,2.294-2.831C3319.442,780.016,3319.161,779.671,3318.932,779.874Z" transform="translate(-3314.671 -779.264)" fill="#1a2e35"></path></g><g id="Group_104" data-name="Group 104" transform="translate(21.678 8.584)"><g id="Group_103" data-name="Group 103" transform="translate(0 0.82)"><path id="Path_209" data-name="Path 209" d="M3280.972,776.925c.005-.088.19.08.2.172.253,2.244.92,4.774,3.05,5.223.066.014.076.127,0,.128C3281.706,782.457,3280.852,779.091,3280.972,776.925Z" transform="translate(-3280.961 -774.24)" fill="#1a2e35"></path><path id="Path_210" data-name="Path 210" d="M3279.579,772.532c3.555-.794,4.881,6.375,1.587,7.11C3277.925,780.366,3276.6,773.2,3279.579,772.532Z" transform="translate(-3277.91 -772.471)" fill="#1a2e35"></path></g><path id="Path_211" data-name="Path 211" d="M3274.972,772.181c.636.275,1.325.862,2.01.781.793-.094,1.23-.977,1.593-1.813.039-.086.105-.037.126.058.292,1.363.1,2.874-1.166,3.38-1.156.462-2.255-.55-2.834-1.855C3274.593,772.492,3274.715,772.071,3274.972,772.181Z" transform="translate(-3271.72 -771.106)" fill="#1a2e35"></path></g><path id="Path_212" data-name="Path 212" d="M3293.458,810.432c.594.468,1.208,1.135,2.03,1.116a5.96,5.96,0,0,0,2.353-.822.079.079,0,0,1,.11.1,3.04,3.04,0,0,1-2.72,1.524,2.4,2.4,0,0,1-1.978-1.8C3293.2,810.43,3293.371,810.364,3293.458,810.432Z" transform="translate(-3280.344 -778.219)" fill="#1a2e35"></path><g id="Group_105" data-name="Group 105" transform="translate(13.681 1.068)"><path id="Path_213" data-name="Path 213" d="M3288.473,780.147s1.008,3.252,1.268,4.821c.022.147-.345.28-.873.4-.024.013-.037.025-.062.012a7.561,7.561,0,0,1-7.707-1.592c-.134-.135.039-.33.2-.256a11.4,11.4,0,0,0,7.136.829c.039-.453-1.913-5.511-1.667-5.572a13.844,13.844,0,0,1,3.7.22c-1.905-6.835-4.89-13.309-6.684-20.143a.217.217,0,0,1,.394-.169c3.609,6.564,5.973,14.381,8.121,21.389C3292.571,780.956,3289.145,780.31,3288.473,780.147Z" transform="translate(-3281.052 -758.592)" fill="#1a2e35"></path></g></g><g id="Group_107" data-name="Group 107" transform="translate(0.16)"><path id="Path_214" data-name="Path 214" d="M3308.726,721.015s1.771,4.813.408,8.541c-2.8,7.664-11.824,6.579-14.567,9.766-2.572,2.987-1.045,8.523-3.35,11.487-3.19,4.1-8.157,3.1-8.5,5.695s-1.257,10.819-4.389,12.153-23.075-50.9,19.31-53.249c0,0,5.57-2.918,14.99.75,10.4,4.048,16.267,19.949,16.267,19.949s-.233-.2-1.8-1.337c-2.21-1.6-3.155-3.19-4.76-4.211-2.52-1.6-3.742-.79-6.351-2.337C3312.009,725.863,3308.726,721.015,3308.726,721.015Z" transform="translate(-3270.911 -714.307)" fill="#1a2e35"></path><path id="Path_215" data-name="Path 215" d="M3327.721,721.692a28.51,28.51,0,0,1,1.849,6.338,11.892,11.892,0,0,1-.3,6.362,8.8,8.8,0,0,1-4.486,4.231c-1.939.931-4.132,1.353-6.21,2.423a6.635,6.635,0,0,0-2.628,2.4,8.861,8.861,0,0,0-.932,3.362c-.241,2.208-.494,4.385-1.783,6.068a7.343,7.343,0,0,1-5.434,2.916c-2.126.207-4.535-.166-6.522.967,2.073-.969,4.316-.416,6.554-.457a7.974,7.974,0,0,0,6.034-2.93c1.57-1.83,1.816-4.31,2.1-6.438a7.955,7.955,0,0,1,.854-2.988,5.638,5.638,0,0,1,2.259-1.975c1.854-1,4.074-1.476,6.126-2.486a11.443,11.443,0,0,0,2.852-1.935,6.912,6.912,0,0,0,1.977-2.868,12.466,12.466,0,0,0,.052-6.751A28.8,28.8,0,0,0,3327.721,721.692Z" transform="translate(-3290.772 -717.257)" fill="#1a2e35"></path><path id="Path_216" data-name="Path 216" d="M3274.914,724.764a23.135,23.135,0,0,0,2.6,5.624,10.877,10.877,0,0,0,4.68,4.248,15.81,15.81,0,0,0,3.028.855,5.046,5.046,0,0,1,2.427,1.31,15.5,15.5,0,0,0,2.073,2.316,6.9,6.9,0,0,0,2.829,1.307,7.655,7.655,0,0,1-2.483-1.689,15.64,15.64,0,0,1-1.792-2.443,5.34,5.34,0,0,0-2.792-1.748,16.894,16.894,0,0,1-2.863-.857,11.566,11.566,0,0,1-4.416-3.785A45.6,45.6,0,0,1,3274.914,724.764Z" transform="translate(-3236.973 -718.484)" fill="#1a2e35"></path></g><g id="Group_109" data-name="Group 109" transform="translate(0 43.111)"><g id="Group_108" data-name="Group 108"><path id="Path_217" data-name="Path 217" d="M3353.033,792.682s-8.71-9.148-12.968-5.891,3.378,17.277,9.139,18.478a5.608,5.608,0,0,0,6.977-4.109Z" transform="translate(-3338.828 -786.089)" fill="#c36358"></path><path id="Path_218" data-name="Path 218" d="M3343.839,793.851a.076.076,0,0,0-.007.15c4.059.968,6.609,4.207,8.577,7.668-1.352-1.241-3.018-1.781-4.707-.141-.089.086.03.228.134.189a3.45,3.45,0,0,1,3.935.62,16.671,16.671,0,0,1,2.259,2.763c.231.315.82.038.63-.335-.014-.028-.031-.057-.044-.084C3353.971,799.792,3349.147,793.546,3343.839,793.851Z" transform="translate(-3340.313 -789.185)" fill="#1a2e35"></path></g></g></g><g id="Group_112" data-name="Group 112" transform="translate(7.163 88.686)"><g id="Group_111" data-name="Group 111"><path id="Path_219" data-name="Path 219" d="M3327.214,863.912l-4.7,15.119-19.695-17.055-4.675,6.362s20.181,27.994,20.185,26.656l5.014-13.111,9.422,8.076-2.491-21.987Z" transform="translate(-3298.148 -861.976)" fill="#ececec"></path><path id="Path_220" data-name="Path 220" d="M3330.318,883.059c-.533-3.617-.969-7.273-1.668-10.862-.024-.127-.23-.168-.25-.014-.444,3.57,1.667,17.39,1.921,20.723l-.042-.035c-.394-.35-8.7-7.073-8.767-6.95-1.146,2.11-4.832,11.66-5.067,12.521-3.192-4.448-15.356-20.573-19.046-24.724a.126.126,0,0,0-.208.144c2.885,4.736,19.014,26.47,19.229,26.387a142.98,142.98,0,0,0,5.23-13.855c1.434,1.5,9.888,9.156,9.871,8.613A114.665,114.665,0,0,0,3330.318,883.059Z" transform="translate(-3296.314 -866.013)" fill="#1a2e35"></path></g></g></g></g></g><rect id="Rectangle_31" data-name="Rectangle 31" width="274.758" height="274.758" transform="translate(484.182 323.369)" fill="#dcdcdc"></rect><g id="Group_116" data-name="Group 116" transform="translate(494.139 249.649)"><path id="Path_221" data-name="Path 221" d="M3713.619,439.688V624.794h185.1V439.688ZM3888.68,614.75H3723.663V449.733H3888.68Z" transform="translate(-3713.619 -439.688)" fill="#1a2e35"></path></g><g id="Group_156" data-name="Group 156" transform="translate(533.927 344.71)"><g id="Group_155" data-name="Group 155" transform="translate(0 0)"><g id="Group_117" data-name="Group 117" transform="translate(35.888 3.108)"><path id="Path_222" data-name="Path 222" d="M3796.615,736.562c-1.188.077-6.744.459-14.868,1.036-3.082-5.052-6.843-14.071-6-27.119.155-2.16-4.364,10.419-1.552,27.652-15.7,1.095-37.053,2.573-55.717,3.689-.694-7.275-1.667-13.988-1.667-13.988a80.929,80.929,0,0,1-2.391,14.246c-2.552.172-5.054.293-7.453.431.03-11.346-2.8-30.982-2.8-30.982a99.679,99.679,0,0,1-7.81,31.557c-11.855.583-19.666.751-19.191.166,17-21.386,3.323-32.631,7.594-50.978,5.129-21.985,23.684-26.288,22.383-42.563-1.024-13.244-3.776-37.234,12.744-43.143,0,0,12.947-15.551,34.726-8.311,26.944,8.931,18.333,50.315,20.52,58.551,3.113,11.768,8.962,15.7,13.805,29.059,4.937,13.52-.894,22.912-1.178,32.246C3787.512,727.437,3799.59,736.4,3796.615,736.562Z" transform="translate(-3676.5 -596.333)" fill="#1a2e35"></path><path id="Path_223" data-name="Path 223" d="M3824.289,773.935a46.418,46.418,0,0,0,5.227-11.875c1.171-4.106.393-8.219-.619-12.454a129.477,129.477,0,0,1-2.781-13.006,34.622,34.622,0,0,1,.684-13.715,30.365,30.365,0,0,1,6.6-12.093,80.734,80.734,0,0,1,9.788-9.115c3.308-2.833,6.609-5.631,9.023-9.154a23.846,23.846,0,0,0,4.211-12.074,22.31,22.31,0,0,1-2.852,12.922,44.855,44.855,0,0,1-8.644,10.245,101.418,101.418,0,0,0-9.064,9.228,28.9,28.9,0,0,0-5.705,10.939,33.975,33.975,0,0,0-.678,12.415c.438,4.233,1.423,8.463,2.2,12.84a44.139,44.139,0,0,1,.738,6.737,19.521,19.521,0,0,1-1.191,6.808A37.667,37.667,0,0,1,3824.289,773.935Z" transform="translate(-3824.289 -629.932)" fill="#1a2e35"></path><path id="Path_224" data-name="Path 224" d="M3670.173,623.722c2.291,4.934,3.306,10.35,4.325,15.662.919,5.349,1.577,10.731,2.174,16.094l.945,8a40.053,40.053,0,0,0,1.562,7.619c1.54,4.907,4.518,9.111,7.858,13.373a61.844,61.844,0,0,1,4.649,6.886,37.727,37.727,0,0,1,3.31,7.787,55.938,55.938,0,0,1,1.542,8.221,34.472,34.472,0,0,1-.075,8.4c-.355,2.787-1.016,5.438-1.551,8.03a41.217,41.217,0,0,0-.884,7.839c-.159,5.178,2.8,10.206,7.135,13.392a16.832,16.832,0,0,1-8.813-13.324,40.549,40.549,0,0,1,.316-8.277c.346-2.73.906-5.351,1.083-7.94a42.977,42.977,0,0,0-1.938-15.382,37.309,37.309,0,0,0-3.108-7.036,58.6,58.6,0,0,0-4.476-6.473,81.513,81.513,0,0,1-4.737-6.768,33.694,33.694,0,0,1-3.493-7.737,43.2,43.2,0,0,1-1.444-8.259c-.276-2.716-.448-5.415-.616-8.11-.362-5.386-.644-10.761-1.148-16.112A78.477,78.477,0,0,0,3670.173,623.722Z" transform="translate(-3576.392 -607.273)" fill="#1a2e35"></path></g><g id="Group_119" data-name="Group 119" transform="translate(0 246.349)"><g id="Group_118" data-name="Group 118"><path id="Path_225" data-name="Path 225" d="M3937.382,1002.305c.046-.324.108-.632.169-.956-.077.4-.154.786-.2,1.187C3937.366,1002.46,3937.366,1002.382,3937.382,1002.305Z" transform="translate(-3937.351 -1001.349)" fill="#ffc800"></path><path id="Path_226" data-name="Path 226" d="M3849.736,1018.606a4.687,4.687,0,0,1-.555.292l-.077-.138-.015-.016c.184-.046.385-.078.571-.124A.142.142,0,0,0,3849.736,1018.606Z" transform="translate(-3796.527 -1008.242)" fill="#ffc800"></path></g></g><g id="Group_151" data-name="Group 151" transform="translate(16.911)"><g id="Group_137" data-name="Group 137" transform="translate(0 92.803)"><g id="Group_122" data-name="Group 122" transform="translate(91.462 3.006)"><g id="Group_120" data-name="Group 120"><path id="Path_227" data-name="Path 227" d="M3633.459,762.941c33.376,37.551,73.793,114.988,64.737,129.789-10.087,16.486-58.242-36.987-56.585-39.409,1.407-2.058-14.248-48.379-25.614-82.252C3604.641,737.228,3625.206,753.656,3633.459,762.941Z" transform="translate(-3612.656 -750.689)" fill="#ed776a"></path></g><g id="Group_121" data-name="Group 121"><path id="Path_228" data-name="Path 228" d="M3633.459,762.941c33.376,37.551,73.793,114.988,64.737,129.789-10.087,16.486-58.242-36.987-56.585-39.409,1.407-2.058-14.248-48.379-25.614-82.252C3604.641,737.228,3625.206,753.656,3633.459,762.941Z" transform="translate(-3612.656 -750.689)" fill="#375a64"></path></g><path id="Path_229" data-name="Path 229" d="M3656.087,840.094c3.253,9.882,6.244,19.15,8.512,26.556,5.16.23,20.246-.6,35.923-15.667-4.711-8.359-9.816-16.751-15.075-24.77A46.848,46.848,0,0,1,3656.087,840.094Z" transform="translate(-3639.775 -780.856)" fill="#ececec"></path></g><g id="Group_123" data-name="Group 123" transform="translate(20.249)"><path id="Path_230" data-name="Path 230" d="M3793.2,907.853l-8.383-56.8s13.437-23.459,5.642-40.295c-3.936-8.527-30.917-50.2-45.452-60.751-13.635-9.9-32.312-.87-38.664,7.738-18.265,24.752-27.164,69.3-37.362,150.107Z" transform="translate(-3668.977 -745.684)" fill="#375a64"></path><path id="Path_231" data-name="Path 231" d="M3668.674,796.468c2.757,3.784,5.435,7.625,8.068,11.5-.718-1.507-1.441-3.011-2.148-4.522-.051-.109.109-.2.165-.091.979,1.894,1.88,3.814,2.759,5.746q5.275,7.814,10.229,15.839a41.5,41.5,0,0,1,3.623,7.084,31.758,31.758,0,0,1,1.78,7.534,40.054,40.054,0,0,1,.125,7.734,53.607,53.607,0,0,1-1.122,7.889,50.417,50.417,0,0,1-2.778,8.616c-.583,1.359-1.206,2.709-1.877,4.027-.613,1.2-1.861,3.662-1.844,3.757.252,1.36.508,2.315.679,3.458q.263,1.748.527,3.5c.351,2.331,3.377,25.016,3.719,27.349.678,4.632,1.26,9.267,1.838,13.912.332,2.665.506,5.354.881,8.012.016.107-.148.151-.166.041-.383-2.316-.957-4.6-1.379-6.911s-.849-4.624-1.282-6.935c-.876-4.67-4.248-29.735-4.98-34.43q-.3-1.948-.607-3.895a25.207,25.207,0,0,1-.5-4.333s4.159-8.546,5.774-14.538a51.382,51.382,0,0,0,1.653-7.725,40.587,40.587,0,0,0,.094-7.675,33.679,33.679,0,0,0-1.473-7.534,38.871,38.871,0,0,0-3.264-7.17c-2.716-4.826-5.6-9.562-8.528-14.262q-4.979-7.994-10.109-15.894C3668.474,796.457,3668.614,796.386,3668.674,796.468Z" transform="translate(-3568.907 -765.954)" fill="#1a2e35"></path></g><g id="Group_128" data-name="Group 128" transform="translate(0 105.531)"><g id="Group_126" data-name="Group 126" transform="translate(0 0.225)"><path id="Path_232" data-name="Path 232" d="M3721.489,961.067c-8.521,10.93-30.223,11.969-84.621,19.716-7.527,1.071-29.382-50.016-21.4-51.574,10.051-1.962,49.48-7.4,52.413-7.432C3692.622,921.495,3727.269,953.652,3721.489,961.067Z" transform="translate(-3544.486 -921.775)" fill="#ed776a"></path><g id="Group_125" data-name="Group 125" transform="translate(0 5.538)"><path id="Path_233" data-name="Path 233" d="M3797,931s-22.993,2.26-34.7,7.188c-15.684,6.6-26.508,18.749-30.736,24.117-8.827,11.2-22.423,44.39-13.548,49.974,8.034,5.054,20.219-29.572,20.219-29.572s-18.249,33.254-7.456,37.562,22.651-36.693,22.651-36.693-17.984,34.588-6.151,37.27c8.942,2.026,21.773-34.5,21.773-34.5s-15.251,29.836-6.145,32.316c10.063,2.74,24.022-30.236,24.022-30.236,24.208,2.408,36.719-6.349,44.877-13.638C3833.773,973.016,3797,931,3797,931Z" transform="translate(-3715.118 -930.996)" fill="#ed776a"></path><g id="Group_124" data-name="Group 124" transform="translate(12.327 39.755)"><path id="Path_234" data-name="Path 234" d="M3877.849,997.237c-2.285,3.829-4.624,7.689-6.561,11.708s-3.735,8.108-5.289,12.289c-3.812,10.255-4.594,17.272-4.5,16.844,2.26-10.126,8.97-24.62,10.909-28.64s3.664-8.119,5.595-12.132C3878.053,997.2,3877.9,997.146,3877.849,997.237Z" transform="translate(-3861.493 -997.192)" fill="#1a2e35"></path><path id="Path_235" data-name="Path 235" d="M3851.773,1008.448c-2.707,5.015-5.576,9.894-8.062,15.031-2.473,5.111-4.372,10.177-6.487,15.444-.163.406.109.36.289-.041,2.323-5.179,4.871-9.788,7.255-14.939,2.376-5.134,4.57-10.4,7.13-15.441C3851.938,1008.424,3851.814,1008.372,3851.773,1008.448Z" transform="translate(-3820.779 -1001.673)" fill="#1a2e35"></path><path id="Path_236" data-name="Path 236" d="M3824.9,1014.287c-4.528,7.453-7.676,15.732-10.569,23.926-.144.408.2.311.371-.1,3.364-8.02,5.945-14.336,10.458-23.671C3825.225,1014.3,3824.99,1014.13,3824.9,1014.287Z" transform="translate(-3780.299 -1003.995)" fill="#1a2e35"></path></g></g></g><g id="Group_127" data-name="Group 127" transform="translate(64.505)"><path id="Path_237" data-name="Path 237" d="M3612.766,927.624l44.784,52.7s61.174-4.256,68.217-20.371-39.533-39.605-54.038-38.341S3612.766,927.624,3612.766,927.624Z" transform="translate(-3612.766 -921.465)" fill="#375a64"></path><path id="Path_238" data-name="Path 238" d="M3688.294,928.525c-3.516-2.4-13.5-8.106-23.563-6.979a.088.088,0,0,0,0,.176c8.249.252,19.881,4.9,23.479,6.947A.084.084,0,0,0,3688.294,928.525Z" transform="translate(-3605.768 -921.4)" fill="#1a2e35"></path><path id="Path_239" data-name="Path 239" d="M3747.5,974.4c-17.6-18.644-33.272-40.907-36.279-44.593-.142-.174.156-.384.29-.2,2.761,3.77,23.429,27.27,36.308,44.573C3747.968,974.38,3747.669,974.58,3747.5,974.4Z" transform="translate(-3693.245 -924.65)" fill="#1a2e35"></path></g></g><g id="Group_130" data-name="Group 130" transform="translate(90.534 31.945)"><rect id="Rectangle_32" data-name="Rectangle 32" width="99.223" height="76.221" transform="translate(19.844 120.751) rotate(-101.537)" fill="#ffc800"></rect><g id="Group_129" data-name="Group 129" transform="translate(18.308)"><rect id="Rectangle_33" data-name="Rectangle 33" width="36.125" height="10.947" transform="matrix(-0.98, 0.201, -0.201, -0.98, 37.588, 18.075)" fill="#ececec"></rect><path id="Path_240" data-name="Path 240" d="M3684.68,811.846l4.358-.895-1.015-4.944,10.589-2.174,1.015,4.945,4.357-.895-1.85-9.008-19.366,3.976Z" transform="translate(-3676.643 -798.874)" fill="#ececec"></path></g></g><g id="Group_136" data-name="Group 136" transform="translate(8.312 5.581)"><g id="Group_133" data-name="Group 133" transform="translate(1.545 1.385)"><path id="Path_241" data-name="Path 241" d="M3721.885,774.145c-35.969,45.773-49.54,128-29.575,134.408,18.243,5.856,93.273-12.918,115.62-20.51,6.565-2.231-13.71-53.268-20.731-50.891-8.487,2.871-54.891,13.867-55.791,13.886-1.927.044,8.384-50.579,12.809-73.519C3750.381,745.56,3735.392,756.956,3721.885,774.145Z" transform="translate(-3683.077 -757.281)" fill="#ed776a"></path><g id="Group_132" data-name="Group 132" transform="translate(95.258 57.104)"><path id="Path_242" data-name="Path 242" d="M3670.3,855.954c3.8,4.309.724,9.4.724,9.4a12.249,12.249,0,0,1,6.688,4.968c2.585,4.334-3.077,10.288-3.077,10.288a15.107,15.107,0,0,1,6.219,6.364c2.057,4.4-2.8,11.221-2.8,11.221a13.245,13.245,0,0,1,1.945,9.04c-1.562,8.363-13.658,13.109-21.315,16.2s-32.279,4.7-36.939,5.483l-20.289-48.98s30.392-23.649,39.913-26.01C3649.385,851.943,3666.033,851.117,3670.3,855.954Z" transform="translate(-3601.452 -852.364)" fill="#ed776a"></path><g id="Group_131" data-name="Group 131" transform="translate(42.574 12.344)"><path id="Path_243" data-name="Path 243" d="M3645.751,872.917c-9.035.068-17.558,2.8-26.22,5.052a.155.155,0,0,0,.082.3c8.589-2.336,17.53-2.936,26.194-4.925A.218.218,0,0,0,3645.751,872.917Z" transform="translate(-3619.421 -872.917)" fill="#1a2e35"></path><path id="Path_244" data-name="Path 244" d="M3637.421,898.438a23.516,23.516,0,0,0-5.99,1.434q-3.125.979-6.214,2.064-6.188,2.167-12.261,4.639c-.179.073-.111.366.081.3,4.114-1.432,8.248-2.8,12.418-4.059q3.13-.944,6.275-1.838a28.049,28.049,0,0,0,5.844-1.961A.312.312,0,0,0,3637.421,898.438Z" transform="translate(-3607.238 -883.111)" fill="#1a2e35"></path><path id="Path_245" data-name="Path 245" d="M3629.392,928.768c-1.778,0-3.679.965-5.323,1.579q-2.8,1.046-5.609,2.06c-3.746,1.353-7.492,2.7-11.283,3.923-.189.062-.11.36.081.3,3.858-1.22,7.732-2.388,11.579-3.644q2.834-.924,5.657-1.88c1.6-.542,3.663-1.037,4.974-2.152A.109.109,0,0,0,3629.392,928.768Z" transform="translate(-3595.542 -895.225)" fill="#1a2e35"></path></g></g></g><g id="Group_135" data-name="Group 135" transform="translate(0)"><path id="Path_246" data-name="Path 246" d="M3755.905,848.043c-.581-.348,10.2-49.208,13.813-74.7s-7.772-23.047-24.158-1.25c-17.552,23.349-48.8,86.55-37.977,133.352,3.505,15.155,112.081-6.075,112.081-6.075l-14.631-62.4S3756.8,848.581,3755.905,848.043Z" transform="translate(-3705.356 -754.976)" fill="#375a64"></path><path id="Path_247" data-name="Path 247" d="M3799.551,878.546c17.71,5.2,36.909,2.557,44.746,1.083,1.135-6.133,3.883-19.424,6.684-33.788-18.6,2.06-31.232-.593-38.128-2.9A242.016,242.016,0,0,0,3799.551,878.546Z" transform="translate(-3793.244 -790.11)" fill="#ececec"></path><g id="Group_134" data-name="Group 134" transform="translate(27.264 49.522)"><path id="Path_248" data-name="Path 248" d="M3739.631,951.558c-6.6-21.727-10.246-45.564-11.176-49.673-.044-.195.274-.243.308-.045.7,4.079,7.821,30.868,11.207,49.67C3740.01,951.727,3739.7,951.767,3739.631,951.558Z" transform="translate(-3666.801 -863.108)" fill="#1a2e35"></path><path id="Path_249" data-name="Path 249" d="M3732.274,909.672c2.094-.36,57.525-15.969,69.646-17.85.191-.029.021-.665-.18-.63-37.245,6.57-67.846,16.528-70.192,17.463C3728.768,909.764,3728.37,910.343,3732.274,909.672Z" transform="translate(-3729.403 -858.906)" fill="#1a2e35"></path><path id="Path_250" data-name="Path 250" d="M3795.114,881.479c-.04-.108,3.654-18.814,4.308-19.982.671-1.209,2.123-3.9,2.718-5.152,1.2-2.528,2.241-5.113,3.346-7.673.093-.212-.228-.375-.32-.163-1.193,2.477-2.6,4.851-4.019,7.2-.706,1.152-1.412,2.315-2.119,3.456-.053.076,3.411-18.28,3.9-21.5.039-.237-.221-.3-.294-.1-1.041,3.245-8.306,40.018-9.3,44.092A16.064,16.064,0,0,0,3795.114,881.479Z" transform="translate(-3771.294 -837.433)" fill="#1a2e35"></path><path id="Path_251" data-name="Path 251" d="M3703.8,993.906c3.617-1,18.124-3.346,21.653-3.853a46.362,46.362,0,0,1-1.282-7.932.173.173,0,0,1,.3-.1c.824,1.208,2.237,7.592,2.66,9.1.08.286-19.543,2.75-23.3,2.949A.086.086,0,0,1,3703.8,993.906Z" transform="translate(-3639.12 -895.162)" fill="#1a2e35"></path></g></g></g></g><g id="Group_150" data-name="Group 150" transform="translate(51.098)"><path id="Path_252" data-name="Path 252" d="M3782.006,754.552s-1.457,14.359-13.359,16.594-34.146-13.4-34.146-13.4,8.933-12.021,25.073-12.06C3775.1,745.648,3782.006,754.552,3782.006,754.552Z" transform="translate(-3727.989 -652.882)" fill="#ed776a"></path><g id="Group_149" data-name="Group 149"><g id="Group_138" data-name="Group 138" transform="translate(19.495 59.95)"><path id="Path_253" data-name="Path 253" d="M3746.315,728.686c.636,2.157,11.881,15.75,21.846,14.711,3.245-.345,2.156-18.138,2.156-18.138l.22-1.333,3.066-18.647-22.421-12.642-3.23-1.658s-.5,5.157-1.064,11.584c-.028.3-.055.6-.08.916-.041.363-.085.705-.107,1.045-.1.959-.19,1.939-.263,2.917-.06.743-.12,1.467-.153,2.25-.054.786-.09,1.548-.144,2.333C3745.781,719.777,3746.059,727.769,3746.315,728.686Z" transform="translate(-3745.969 -690.98)" fill="#ed776a"></path><path id="Path_254" data-name="Path 254" d="M3745.969,702.564a37.906,37.906,0,0,0,23.649,21.362l3.066-18.647-22.421-12.642-3.23-1.658S3746.531,696.137,3745.969,702.564Z" transform="translate(-3745.049 -690.98)" fill="#1a2e35"></path></g><g id="Group_148" data-name="Group 148"><path id="Path_255" data-name="Path 255" d="M3767.261,634.969c8.725,32-9.454,40.837-16.356,42.71-6.266,1.7-27.815,6.7-39.8-24.227s.133-45.1,14.257-49.745S3758.534,602.97,3767.261,634.969Z" transform="translate(-3698.581 -595.525)" fill="#ed776a"></path><g id="Group_145" data-name="Group 145" transform="translate(32.662 30.12)"><path id="Path_256" data-name="Path 256" d="M3732.5,644.375a21.588,21.588,0,0,1-2.29.064,3.7,3.7,0,0,1-2.348-.379,1.179,1.179,0,0,1-.335-1.4,2.924,2.924,0,0,1,2.645-1.339,4.3,4.3,0,0,1,2.978.847A1.258,1.258,0,0,1,3732.5,644.375Z" transform="translate(-3708.005 -641.31)" fill="#1a2e35"></path><path id="Path_257" data-name="Path 257" d="M3762.036,648.969a21.622,21.622,0,0,0,2.085-.949,3.7,3.7,0,0,0,1.942-1.373,1.18,1.18,0,0,0-.315-1.405,2.924,2.924,0,0,0-2.964-.041,4.3,4.3,0,0,0-2.3,2.07A1.259,1.259,0,0,0,3762.036,648.969Z" transform="translate(-3760.347 -642.711)" fill="#1a2e35"></path><g id="Group_140" data-name="Group 140" transform="translate(0.925 14.656)"><g id="Group_139" data-name="Group 139" transform="translate(3.468)"><path id="Path_258" data-name="Path 258" d="M3754.8,668.752c-.037-.079-.145.147-.121.235.611,2.175.947,4.769-.857,5.987-.056.038-.022.146.049.118C3756.208,674.153,3755.73,670.715,3754.8,668.752Z" transform="translate(-3750.193 -666.921)" fill="#1a2e35"></path><path id="Path_259" data-name="Path 259" d="M3756.256,665.74c-3.593.6-2.119,7.744,1.209,7.184C3760.739,672.373,3759.266,665.234,3756.256,665.74Z" transform="translate(-3754.17 -665.714)" fill="#1a2e35"></path></g><path id="Path_260" data-name="Path 260" d="M3764.866,666.821c-.54.533-1,1.372-1.74,1.6-.852.266-1.664-.346-2.381-.948-.074-.062-.123.013-.1.107.262,1.372,1.077,2.667,2.585,2.569,1.376-.089,2.087-1.5,2.145-2.945C3765.382,666.937,3765.083,666.607,3764.866,666.821Z" transform="translate(-3760.637 -666.129)" fill="#1a2e35"></path></g><g id="Group_142" data-name="Group 142" transform="translate(22.175 8.156)"><g id="Group_141" data-name="Group 141" transform="translate(0 1.135)"><path id="Path_261" data-name="Path 261" d="M3727.021,661.483c0-.088.2.067.212.159.407,2.222,1.246,4.7,3.4,5,.067.009.085.121.008.127C3728.132,666.953,3727.05,663.653,3727.021,661.483Z" transform="translate(-3727.019 -658.649)" fill="#1a2e35"></path><path id="Path_262" data-name="Path 262" d="M3725.9,656.884c3.492-1.036,5.308,6.024,2.073,6.984C3724.784,664.814,3722.968,657.753,3725.9,656.884Z" transform="translate(-3724.42 -656.781)" fill="#1a2e35"></path></g><path id="Path_263" data-name="Path 263" d="M3721.9,656.215c.655.231,1.381.768,2.059.641.786-.148,1.16-1.059,1.466-1.918.032-.089.1-.044.128.048.385,1.34.3,2.861-.93,3.453-1.121.541-2.288-.394-2.955-1.656C3721.542,656.551,3721.635,656.123,3721.9,656.215Z" transform="translate(-3718.831 -654.891)" fill="#1a2e35"></path></g><path id="Path_264" data-name="Path 264" d="M3738.351,696.6c.617.437,1.265,1.071,2.085,1.01a5.97,5.97,0,0,0,2.307-.944.079.079,0,0,1,.115.1,3.04,3.04,0,0,1-2.638,1.662,2.4,2.4,0,0,1-2.068-1.692C3738.1,696.613,3738.261,696.538,3738.351,696.6Z" transform="translate(-3723.696 -663.386)" fill="#1a2e35"></path><g id="Group_143" data-name="Group 143" transform="translate(14.906 1.93)"><path id="Path_265" data-name="Path 265" d="M3734.047,665.819s1.175,3.2,1.516,4.749c.03.145-.33.3-.851.443-.023.013-.035.026-.061.015a7.563,7.563,0,0,1-7.779-1.19c-.141-.129.022-.332.184-.266a11.4,11.4,0,0,0,7.169.458c.016-.454-2.2-5.405-1.954-5.477a13.825,13.825,0,0,1,3.7.028c-2.256-6.727-5.572-13.038-7.717-19.77a.217.217,0,0,1,.384-.189c3.943,6.368,6.709,14.053,9.218,20.94C3738.181,666.415,3734.727,665.947,3734.047,665.819Z" transform="translate(-3726.819 -644.524)" fill="#1a2e35"></path></g><g id="Group_144" data-name="Group 144" transform="translate(14.76 27.077)"><path id="Path_266" data-name="Path 266" d="M3740.546,687.245a8.968,8.968,0,0,1-2.75,3.615,4.041,4.041,0,0,1-2.328.781c-1.834.007-2.3-1.553-2.341-2.982a9.673,9.673,0,0,1,.217-2.264A11.622,11.622,0,0,0,3740.546,687.245Z" transform="translate(-3733.121 -686.395)" fill="#1a2e35"></path><path id="Path_267" data-name="Path 267" d="M3742.371,692.323a4.041,4.041,0,0,1-2.329.781c-1.833.007-2.3-1.553-2.341-2.982C3739.588,689.819,3741.738,690.58,3742.371,692.323Z" transform="translate(-3737.697 -687.858)" fill="#ff9cbf"></path></g></g><path id="Path_268" data-name="Path 268" d="M3733.572,648.548c3.412-1.2,9.712-13.343,5.182-30.185,0,0,3.022,15.4,2.523,17.934s3.512-6.822.048-20.457c0,0,9.036,3.257,15.933,3.215s10.784-1.221,11.109-1.814-9.919-.858-13.3-3.059c0,0,19.244,3.025,27.243,1.378.925-.19-3.334-19.12-17.7-23.552s-31.088,9.6-34.814,16.054c0,0-5.806,2.6-9.817,13.435S3729.9,649.841,3733.572,648.548Z" transform="translate(-3719.26 -591.159)" fill="#1a2e35"></path><g id="Group_147" data-name="Group 147" transform="translate(4.981 51.813)"><g id="Group_146" data-name="Group 146" transform="translate(0)"><path id="Path_269" data-name="Path 269" d="M3801,683.711s-8.971-8.892-13.132-5.513,3.876,17.171,9.669,18.205a5.609,5.609,0,0,0,6.856-4.309Z" transform="translate(-3786.721 -677.432)" fill="#ed776a"></path><path id="Path_270" data-name="Path 270" d="M3791.7,685.179a.076.076,0,0,0,0,.15c4.085.85,6.728,4.014,8.8,7.417-1.387-1.2-3.068-1.694-4.709,0-.086.088.037.226.14.184a3.449,3.449,0,0,1,3.951.506,16.675,16.675,0,0,1,2.338,2.7c.24.307.821.014.62-.354-.015-.027-.032-.055-.047-.082C3802,690.824,3796.994,684.721,3791.7,685.179Z" transform="translate(-3788.145 -680.517)" fill="#1a2e35"></path></g></g></g></g></g></g><g id="Group_154" data-name="Group 154" transform="translate(0 246.349)"><g id="Group_153" data-name="Group 153" transform="translate(0)"><path id="Path_271" data-name="Path 271" d="M3849.787,1018.631l-.556.139-.015-.016C3849.4,1018.709,3849.6,1018.677,3849.787,1018.631Z" transform="translate(-3796.655 -1008.252)" fill="#ed776a"></path><g id="Group_152" data-name="Group 152"><path id="Path_272" data-name="Path 272" d="M3937.551,1001.349c-.077.4-.154.786-.2,1.187.015-.077.015-.154.031-.231C3937.428,1001.981,3937.49,1001.673,3937.551,1001.349Z" transform="translate(-3937.351 -1001.349)" fill="#ffc800"></path><path id="Path_273" data-name="Path 273" d="M3937.551,1001.349c-.077.4-.154.786-.2,1.187.015-.077.015-.154.031-.231C3937.428,1001.981,3937.49,1001.673,3937.551,1001.349Z" transform="translate(-3937.351 -1001.349)" fill="#ffc800"></path><path id="Path_274" data-name="Path 274" d="M3846.759,1028.236v.015c-.585.139-1.157.278-1.727.4C3845.6,1028.513,3846.188,1028.375,3846.759,1028.236Z" transform="translate(-3791.113 -1012.088)" fill="#ffc800"></path></g></g></g><path id="Path_275" data-name="Path 275" d="M3937.551,1001.349c-.077.4-.154.786-.2,1.187.015-.077.015-.154.031-.231C3937.428,1001.981,3937.49,1001.673,3937.551,1001.349Z" transform="translate(-3937.351 -755)" fill="#dcdcdc"></path></g></g></g></g></svg>